<?xml version="1.0" encoding="utf-8"?>
<!-- Generator: Adobe Illustrator 27.9.5, SVG Export Plug-In . SVG Version: 9.03 Build 54986)  -->
<svg version="1.1" id="grasshopper_sentinel" xmlns="http://www.w3.org/2000/svg" xmlns:xlink="http://www.w3.org/1999/xlink"
	 x="0px" y="0px" viewBox="0 0 368.4 116.5" style="enable-background:new 0 0 368.4 116.5;" xml:space="preserve">
<style type="text/css">
	.st0{enable-background:new    ;}
	.st1{fill:#595E71;}
	.st2{fill-rule:evenodd;clip-rule:evenodd;fill:#2A2E3C;}
	.st3{fill:#C1D301;}
</style>
<g class="st0">
	<path class="st1" d="M140.9,88.6l1.6-3.5c2.3,2.1,6.3,3.6,10.3,3.6c5.4,0,7.7-2.1,7.7-4.8c0-7.6-18.9-2.8-18.9-14.4
		c0-4.8,3.7-8.9,11.9-8.9c3.6,0,7.4,1,10,2.8l-1.5,3.6c-2.7-1.7-5.8-2.5-8.5-2.5c-5.3,0-7.6,2.2-7.6,4.9c0,7.6,18.9,2.8,18.9,14.3
		c0,4.8-3.8,8.8-12,8.8C148.1,92.5,143.4,90.9,140.9,88.6z"/>
	<path class="st1" d="M194,88.3v3.9h-22.6V61.1h22v3.9h-17.5v9.6h15.6v3.8h-15.6v10H194z"/>
	<path class="st1" d="M227.9,61.1v31.1h-3.6L205.6,69v23.2h-4.4V61.1h3.6l18.7,23.2V61.1H227.9z"/>
	<path class="st1" d="M243.4,64.9h-10.7v-3.9h25.7v3.9h-10.7v27.3h-4.4V64.9z"/>
	<path class="st1" d="M263.4,61.1h4.4v31.1h-4.4V61.1z"/>
	<path class="st1" d="M303.9,61.1v31.1h-3.6L281.6,69v23.2h-4.4V61.1h3.6l18.7,23.2V61.1H303.9z"/>
	<path class="st1" d="M335.8,88.3v3.9h-22.6V61.1h22v3.9h-17.5v9.6h15.6v3.8h-15.6v10H335.8z"/>
	<path class="st1" d="M343,61.1h4.4v27.3h16.9v3.9H343V61.1z"/>
</g>
<path class="st2" d="M159.6,25.9l5.3,11.3h-10.6C154.3,37.2,159.6,25.8,159.6,25.9z M225.5,47.2h-4.1v3.8h36v-13h-4
	c-0.2,3.4-0.2,9.2-5.8,9.2h-12.8V36.9h5.2c2.6,0,3.1,1.3,3.1,3.4v2h3.8V27.8h-3.7v2.6c0,1.5-1.2,2.5-3.1,2.5h-5.3v-9.1H247
	c5.4,0,5.6,4.7,5.8,8.1h3.9V20h-35.4v3.8h4c1,0,1.8,0.5,1.8,1.7v20.1C227.2,46.6,226.4,47.2,225.5,47.2L225.5,47.2z M141.1,47.2
	c3.3,0,4-0.2,5.2-2.8l11.5-24.6h6.8l11.5,24.7c1.2,2.5,2,2.7,5.4,2.7V51H164v-3.8h3.5c0.9,0,1.4-0.5,1.4-1.2c0-1.1-1.4-3.4-2.2-5.1
	h-14c-1.4,3-2.1,4.6-2.1,5.1c0,1,1,1.2,3.4,1.2h1.6V51h-14.4L141.1,47.2L141.1,47.2z M182.7,35.5c0-9.3,7.1-16.7,18.4-16.7
	c3.9,0,7.9,1.1,10.8,3.2l1.6-2.5h3.7v12.1h-4.1c-1.5-6-5.8-8.6-11.2-8.6c-9.1,0-11.1,6.7-11.1,12.7s2.4,12,11.5,12
	c7.2,0,10.9-3.9,11.1-9.7h4.4c0,8.4-5.7,13.9-16.8,13.9C189.3,51.8,182.7,45.1,182.7,35.5L182.7,35.5z"/>
<path class="st3" d="M69.9,6.8c-30.1,0-54.6,24.4-54.6,54.6h54.6V6.8z"/>
<path class="st3" d="M67,6.8c30.1,0,54.6,24.4,54.6,54.6H67V6.8z"/>
<path id="plane" class="st1" d="M66.2,106.6H55.7c-1.3-0.1-2.1-0.5-2.8-1c-2.9-2-2.2-6.3,0.6-8.1c1.5-1,10.9-3.1,11-3.7l-3.8-25.2
	l-17.1-0.2c-1.4,0-3.1,0-4.6,0c-8.1-0.1-26.3,1.7-30.8-6.7c-1.4-2.6-0.6-3.7,0.4-6l1.5-1.6c0,0,1.9-1.4,3-1.6
	c4.1-0.9,12-0.7,17.3-0.6c10,0.1,20,0,30-0.1c0.5-0.4,0.5-7.6,0.7-8.9s0.2-4.1,0.6-5.3c0.5-1.6,2.4-1.8,3.3-2.6
	c0.6-0.6,0.7-2.8,2.3-2.1c0.9,0.4,0.8,1.6,1.2,2c0.5,0.6,2.6,0.8,3.3,2.4c0.4,1,0.6,4.2,0.8,5.5c0.3,2.7,0.3,5.5,0.4,8.2l0.4,0.7
	C82.2,52,91.1,52,100,51.9c5.7,0,15.4-0.3,20.2,0.6c1.2,0.2,3.2,1.6,3.2,1.6l1.4,1.4c0.5,1.1,1.3,1.9,1.3,3.2
	c0.4,5.9-9.5,9.4-14.3,9.4l-38.6,0.4l-3.6,25c0.1,0.3,0.3,0.4,0.6,0.5c2.8,1.2,9.2,2,11.2,3.8c2.3,2,2.7,6.2-0.2,7.8
	c-0.3,0.2-1.2,0.8-2.1,0.8H68.3l-0.4,6.6l-0.6,0.3l-0.6-0.3L66.2,106.6L66.2,106.6z"/>
<path class="st1" d="M14.2,63.3C14.4,29.4,44.4,0.9,78.7,7.8c18.8,3.6,34.5,18.6,40.2,36.6C110.4,20.5,85.1,4.5,60,10.1
	c-18,3.7-32.8,18.1-38.1,35.5c-1.8,5.7-2.6,11.8-2.6,17.8H14.2L14.2,63.3z"/>
</svg>
