<svg width="52" height="52" viewBox="0 0 52 52" fill="none" xmlns="http://www.w3.org/2000/svg">
<circle cx="26" cy="26" r="24" stroke="#DF1219" stroke-width="4" stroke-linecap="round" stroke-dasharray="16 10"/>
<path d="M17 18H21C21.2652 18 21.5196 18.1054 21.7071 18.2929C21.8946 18.4804 22 18.7348 22 19V33C22 33.2652 21.8946 33.5196 21.7071 33.7071C21.5196 33.8946 21.2652 34 21 34H17C16.7348 34 16.4804 33.8946 16.2929 33.7071C16.1054 33.5196 16 33.2652 16 33V19C16 18.7348 16.1054 18.4804 16.2929 18.2929C16.4804 18.1054 16.7348 18 17 18Z" fill="#0B5A87"/>
<path d="M18 32H20V27H18V32Z" fill="#14AE5C"/>
<path d="M24 18H28C28.2652 18 28.5196 18.1054 28.7071 18.2929C28.8946 18.4804 29 18.7348 29 19V33C29 33.2652 28.8946 33.5196 28.7071 33.7071C28.5196 33.8946 28.2652 34 28 34H24C23.7348 34 23.4804 33.8946 23.2929 33.7071C23.1054 33.5196 23 33.2652 23 33V19C23 18.7348 23.1054 18.4804 23.2929 18.2929C23.4804 18.1054 23.7348 18 24 18ZM25 25H27V20H25V25Z" fill="#0B5A87"/>
<path d="M31 18H35C35.2652 18 35.5196 18.1054 35.7071 18.2929C35.8946 18.4804 36 18.7348 36 19V33C36 33.2652 35.8946 33.5196 35.7071 33.7071C35.5196 33.8946 35.2652 34 35 34H31C30.7348 34 30.4804 33.8946 30.2929 33.7071C30.1054 33.5196 30 33.2652 30 33V19C30 18.7348 30.1054 18.4804 30.2929 18.2929C30.4804 18.1054 30.7348 18 31 18Z" fill="#0B5A87"/>
<path d="M32 32H34V27H32V32Z" fill="#14AE5C"/>
</svg>
