<svg width="52" height="52" viewBox="0 0 52 52" fill="none" xmlns="http://www.w3.org/2000/svg">
<path d="M27 32H28C28.2652 32 28.5196 32.1054 28.7071 32.2929C28.8946 32.4804 29 32.7348 29 33H36V35H29C29 35.2652 28.8946 35.5196 28.7071 35.7071C28.5196 35.8946 28.2652 36 28 36H24C23.7348 36 23.4804 35.8946 23.2929 35.7071C23.1054 35.5196 23 35.2652 23 35H16V33H23C23 32.7348 23.1054 32.4804 23.2929 32.2929C23.4804 32.1054 23.7348 32 24 32H25V30H22C21.7348 30 21.4804 29.8946 21.2929 29.7071C21.1054 29.5196 21 29.2652 21 29V17C21 16.7348 21.1054 16.4804 21.2929 16.2929C21.4804 16.1054 21.7348 16 22 16H30C30.2652 16 30.5196 16.1054 30.7071 16.2929C30.8946 16.4804 31 16.7348 31 17V29C31 29.2652 30.8946 29.5196 30.7071 29.7071C30.5196 29.8946 30.2652 30 30 30H27V32ZM27 20H28V18H27V20ZM23 18V20H25V18H23ZM23 22V24H25V22H23ZM23 26V28H25V26H23Z" fill="#DB5A5E"/>
<circle cx="26" cy="26" r="24" stroke="#14AE5C" stroke-width="4" stroke-linecap="round"/>
</svg>