<?xml version="1.0" encoding="utf-8"?>
<!-- Generator: Adobe Illustrator 27.9.5, SVG Export Plug-In . SVG Version: 9.03 Build 54986)  -->
<svg version="1.1" id="grasshopper_sentinel" xmlns="http://www.w3.org/2000/svg" xmlns:xlink="http://www.w3.org/1999/xlink"
	 x="0px" y="0px" viewBox="0 0 448.5 109.9" style="enable-background:new 0 0 448.5 109.9;" xml:space="preserve">
<style type="text/css">
	.st0{fill:#C1D301;}
	.st1{fill:#595E71;}
	.st2{fill:#44344F;}
	.st3{fill:#ADFCF9;}
	.st4{enable-background:new    ;}
</style>
<polygon class="st0" points="6,33.3 6,79.8 46.3,103.1 86.6,79.8 86.6,33.3 46.3,10 "/>
<polygon class="st1" points="10.9,41.8 10.9,82.7 46.3,103.1 81.7,82.7 81.7,41.8 46.3,21.4 "/>
<polygon class="st2" points="19.3,56.4 19.3,87.5 46.3,103.1 73.3,87.5 73.3,56.4 46.3,40.8 "/>
<polygon class="st3" points="26.6,69.6 26.6,92.3 46.3,103.7 66,92.3 66,69.6 46.3,58.2 "/>
<g class="st4">
	<path class="st1" d="M135.2,54.3h4.1v11.5c-3,2.5-7,3.8-11.2,3.8c-9.1,0-15.7-6.4-15.7-15.1c0-8.7,6.7-15.1,15.8-15.1
		c4.7,0,8.7,1.6,11.4,4.6l-2.6,2.6c-2.4-2.4-5.2-3.4-8.6-3.4c-6.8,0-11.8,4.8-11.8,11.4c0,6.5,4.9,11.4,11.7,11.4
		c2.5,0,4.8-0.5,6.9-1.9V54.3z"/>
	<path class="st1" d="M167,69.2l-6.4-9.1c-0.6,0-1.2,0.1-1.9,0.1h-7.3v9h-4.2V39.7h11.5c7.7,0,12.3,3.9,12.3,10.3
		c0,4.6-2.4,7.9-6.5,9.3l7,9.9H167z M166.9,50c0-4.2-2.8-6.6-8.2-6.6h-7.2v13.3h7.2C164.1,56.6,166.9,54.2,166.9,50z"/>
	<path class="st1" d="M196.8,61.8h-15.7l-3.2,7.4h-4.3l13.4-29.5h4.2l13.4,29.5H200L196.8,61.8z M195.3,58.5L188.9,44l-6.4,14.5
		H195.3z"/>
	<path class="st1" d="M206.2,65.8l1.6-3.3c2.2,2,6,3.4,9.7,3.4c5.1,0,7.3-2,7.3-4.6c0-7.2-17.9-2.7-17.9-13.6
		c0-4.6,3.5-8.4,11.3-8.4c3.5,0,7,0.9,9.5,2.6l-1.4,3.4c-2.6-1.6-5.5-2.4-8.1-2.4c-5,0-7.2,2.1-7.2,4.7c0,7.2,17.9,2.7,17.9,13.5
		c0,4.5-3.6,8.4-11.4,8.4C213,69.6,208.5,68,206.2,65.8z"/>
	<path class="st1" d="M232.4,65.8l1.6-3.3c2.2,2,6,3.4,9.8,3.4c5.1,0,7.3-2,7.3-4.6c0-7.2-17.9-2.7-17.9-13.6
		c0-4.6,3.5-8.4,11.3-8.4c3.5,0,7,0.9,9.5,2.6l-1.4,3.4c-2.6-1.6-5.5-2.4-8.1-2.4c-5,0-7.2,2.1-7.2,4.7c0,7.2,17.9,2.7,17.9,13.5
		c0,4.5-3.6,8.4-11.4,8.4C239.2,69.6,234.7,68,232.4,65.8z"/>
	<path class="st1" d="M286.7,39.7v29.5h-4.2V56.1h-17v13.2h-4.2V39.7h4.2v12.7h17V39.7H286.7z"/>
	<path class="st1" d="M293.2,54.4c0-8.7,6.7-15.1,15.7-15.1c9,0,15.7,6.4,15.7,15.1s-6.7,15.1-15.7,15.1
		C299.8,69.6,293.2,63.1,293.2,54.4z M320.3,54.4c0-6.5-4.9-11.4-11.4-11.4c-6.6,0-11.5,4.8-11.5,11.4c0,6.5,4.9,11.4,11.5,11.4
		C315.4,65.8,320.3,61,320.3,54.4z"/>
</g>
<g class="st4">
	<path class="st1" d="M354.9,50c0,6.4-4.6,10.3-12.3,10.3h-7.3v8.9H331V39.7h11.5C350.2,39.7,354.9,43.6,354.9,50z M350.6,50
		c0-4.2-2.8-6.6-8.2-6.6h-7.2v13.3h7.2C347.8,56.6,350.6,54.2,350.6,50z"/>
	<path class="st1" d="M384.9,50c0,6.4-4.6,10.3-12.3,10.3h-7.3v8.9h-4.2V39.7h11.5C380.3,39.7,384.9,43.6,384.9,50z M380.7,50
		c0-4.2-2.8-6.6-8.2-6.6h-7.2v13.3h7.2C377.9,56.6,380.7,54.2,380.7,50z"/>
</g>
<g class="st4">
	<path class="st1" d="M412.6,65.5v3.7h-21.4V39.7H412v3.7h-16.6v9.1h14.8V56h-14.8v9.5H412.6z"/>
	<path class="st1" d="M439.2,69.2l-6.4-9.1c-0.6,0-1.2,0.1-1.9,0.1h-7.3v9h-4.2V39.7h11.5c7.7,0,12.3,3.9,12.3,10.3
		c0,4.6-2.4,7.9-6.5,9.3l7,9.9H439.2z M439,50c0-4.2-2.8-6.6-8.2-6.6h-7.2v13.3h7.2C436.2,56.6,439,54.2,439,50z"/>
</g>
</svg>
