<?xml version="1.0" encoding="UTF-8" standalone="no"?>
<!-- Generator: Adobe Illustrator 27.9.5, SVG Export Plug-In . SVG Version: 9.03 Build 54986)  -->
<svg
   version="1.1"
   id="grasshopper_sentinel"
   x="0px"
   y="0px"
   viewBox="0 0 80.599998 93.699996"
   xml:space="preserve"
   sodipodi:docname="grasshopper icon.svg"
   inkscape:version="1.4 (86a8ad7, 2024-10-11)"
   width="80.599998"
   height="93.699997"
   xmlns:inkscape="http://www.inkscape.org/namespaces/inkscape"
   xmlns:sodipodi="http://sodipodi.sourceforge.net/DTD/sodipodi-0.dtd"
   xmlns="http://www.w3.org/2000/svg"
   xmlns:svg="http://www.w3.org/2000/svg"><defs
   id="defs14" /><sodipodi:namedview
   id="namedview14"
   pagecolor="#ffffff"
   bordercolor="#111111"
   borderopacity="1"
   inkscape:showpageshadow="0"
   inkscape:pageopacity="0"
   inkscape:pagecheckerboard="1"
   inkscape:deskcolor="#d1d1d1"
   inkscape:zoom="1.9799331"
   inkscape:cx="220.20946"
   inkscape:cy="82.578548"
   inkscape:window-width="1920"
   inkscape:window-height="1009"
   inkscape:window-x="3192"
   inkscape:window-y="-8"
   inkscape:window-maximized="1"
   inkscape:current-layer="grasshopper_sentinel" />
<style
   type="text/css"
   id="style1">
	.st0{fill:#C1D301;}
	.st1{fill:#595E71;}
	.st2{fill:#44344F;}
	.st3{fill:#ADFCF9;}
	.st4{enable-background:new    ;}
</style>
<polygon
   class="st0"
   points="46.3,103.1 86.6,79.8 86.6,33.3 46.3,10 6,33.3 6,79.8 "
   id="polygon1"
   transform="translate(-6,-10)" />
<polygon
   class="st1"
   points="46.3,103.1 81.7,82.7 81.7,41.8 46.3,21.4 10.9,41.8 10.9,82.7 "
   id="polygon2"
   transform="translate(-6,-10)" />
<polygon
   class="st2"
   points="46.3,103.1 73.3,87.5 73.3,56.4 46.3,40.8 19.3,56.4 19.3,87.5 "
   id="polygon3"
   transform="translate(-6,-10)" />
<polygon
   class="st3"
   points="46.3,103.7 66,92.3 66,69.6 46.3,58.2 26.6,69.6 26.6,92.3 "
   id="polygon4"
   transform="translate(-6,-10)" />
</svg>
