<?xml version="1.0" encoding="UTF-8" standalone="no"?>
<!-- Created with Inkscape (http://www.inkscape.org/) -->

<svg
   width="21.166666mm"
   height="24.444855mm"
   viewBox="0 0 21.166666 24.444855"
   version="1.1"
   id="svg1"
   xml:space="preserve"
   inkscape:version="1.4 (86a8ad7, 2024-10-11)"
   sodipodi:docname="grasshopper-logomark.svg"
   inkscape:export-filename="..\PNG\grasshopper-logomark-300dpi.png"
   inkscape:export-xdpi="300"
   inkscape:export-ydpi="300"
   xmlns:inkscape="http://www.inkscape.org/namespaces/inkscape"
   xmlns:sodipodi="http://sodipodi.sourceforge.net/DTD/sodipodi-0.dtd"
   xmlns="http://www.w3.org/2000/svg"
   xmlns:svg="http://www.w3.org/2000/svg"><sodipodi:namedview
     id="namedview1"
     pagecolor="#ffffff"
     bordercolor="#111111"
     borderopacity="1"
     inkscape:showpageshadow="0"
     inkscape:pageopacity="0"
     inkscape:pagecheckerboard="1"
     inkscape:deskcolor="#d1d1d1"
     inkscape:document-units="mm"
     inkscape:zoom="5.6568543"
     inkscape:cx="46.050329"
     inkscape:cy="53.828504"
     inkscape:window-width="1920"
     inkscape:window-height="1009"
     inkscape:window-x="3192"
     inkscape:window-y="398"
     inkscape:window-maximized="1"
     inkscape:current-layer="layer1" /><defs
     id="defs1"><style
       id="style1">.cls-1{fill:#c1d301;}.cls-2{fill:#44344f;}.cls-3{fill:#595e71;}.cls-4{fill:#adfcf9;}</style></defs><g
     inkscape:label="Layer 1"
     inkscape:groupmode="layer"
     id="layer1"
     transform="translate(-30.682984,-94.462386)"><polygon
       class="cls-1"
       points="0.67,75.05 40.67,98.15 80.67,75.05 80.67,28.87 40.67,5.77 0.67,28.87 "
       id="polygon1"
       transform="matrix(0.26458333,0,0,0.26458333,30.505713,92.93574)" /><polygon
       class="cls-3"
       points="7.17,78.79 40.67,98.14 74.17,78.79 74.17,40.11 40.67,20.77 7.17,40.11 "
       id="polygon2"
       transform="matrix(0.26458333,0,0,0.26458333,30.505713,92.93574)" /><polygon
       class="cls-2"
       points="13.67,82.56 40.67,98.15 67.67,82.56 67.67,51.39 40.67,35.8 13.67,51.39 "
       id="polygon3"
       transform="matrix(0.26458333,0,0,0.26458333,30.505713,92.93574)" /><polygon
       class="cls-4"
       points="21.01,86.8 40.67,98.16 60.34,86.8 60.34,64.09 40.67,52.74 21.01,64.09 "
       id="polygon4"
       transform="matrix(0.26458333,0,0,0.26458333,30.505713,92.93574)" /></g></svg>
