<?xml version="1.0" encoding="UTF-8"?><svg id="grasshopper_sentinel" xmlns="http://www.w3.org/2000/svg" viewBox="0 0 429.41 109.93"><defs><style>.cls-1{fill:#c1d301;}.cls-2{fill:#44344f;}.cls-3{fill:#595e71;}.cls-4{fill:#adfcf9;}</style></defs><g id="grasshopper"><polygon class="cls-1" points=".67 28.87 .67 75.05 40.67 98.15 80.67 75.05 80.67 28.87 40.67 5.77 .67 28.87"/><polygon class="cls-3" points="7.17 40.11 7.17 78.79 40.67 98.14 74.17 78.79 74.17 40.11 40.67 20.77 7.17 40.11"/><polygon class="cls-2" points="13.67 51.39 13.67 82.56 40.67 98.15 67.67 82.56 67.67 51.39 40.67 35.8 13.67 51.39"/><polygon class="cls-4" points="21.01 64.09 21.01 86.8 40.67 98.16 60.34 86.8 60.34 64.09 40.67 52.74 21.01 64.09"/><path class="cls-1" d="M119.54,49.61h4.05v11.52c-2.95,2.49-7.05,3.76-11.18,3.76-9.07,0-15.74-6.37-15.74-15.11s6.67-15.11,15.83-15.11c4.68,0,8.65,1.56,11.35,4.56l-2.62,2.62c-2.45-2.36-5.23-3.42-8.57-3.42-6.84,0-11.78,4.77-11.78,11.35s4.94,11.35,11.73,11.35c2.49,0,4.81-.55,6.92-1.9v-9.62ZM151.41,64.55l-6.37-9.07c-.59.04-1.22.08-1.86.08h-7.3v8.99h-4.22v-29.54h11.52c7.68,0,12.32,3.88,12.32,10.3,0,4.56-2.36,7.85-6.5,9.33l7.01,9.92h-4.6ZM151.28,45.31c0-4.22-2.83-6.63-8.23-6.63h-7.17v13.29h7.17c5.4,0,8.23-2.45,8.23-6.67ZM181.16,57.16h-15.7l-3.25,7.39h-4.35l13.38-29.54h4.18l13.42,29.54h-4.43l-3.25-7.39ZM179.69,53.79l-6.37-14.48-6.37,14.48h12.75ZM190.53,61.17l1.56-3.29c2.19,1.98,5.95,3.42,9.75,3.42,5.11,0,7.3-1.98,7.3-4.56,0-7.22-17.89-2.66-17.89-13.63,0-4.56,3.54-8.44,11.31-8.44,3.46,0,7.05.93,9.5,2.62l-1.39,3.38c-2.57-1.65-5.49-2.41-8.1-2.41-5.02,0-7.17,2.11-7.17,4.69,0,7.22,17.9,2.7,17.9,13.55,0,4.52-3.63,8.4-11.44,8.4-4.52,0-8.95-1.52-11.31-3.71ZM216.74,61.17l1.56-3.29c2.19,1.98,5.95,3.42,9.75,3.42,5.11,0,7.3-1.98,7.3-4.56,0-7.22-17.89-2.66-17.89-13.63,0-4.56,3.54-8.44,11.31-8.44,3.46,0,7.05.93,9.5,2.62l-1.39,3.38c-2.57-1.65-5.49-2.41-8.1-2.41-5.02,0-7.17,2.11-7.17,4.69,0,7.22,17.9,2.7,17.9,13.55,0,4.52-3.63,8.4-11.44,8.4-4.52,0-8.95-1.52-11.31-3.71ZM271.06,35.01v29.54h-4.22v-13.17h-16.97v13.17h-4.22v-29.54h4.22v12.7h16.97v-12.7h4.22ZM277.52,49.78c0-8.65,6.67-15.11,15.74-15.11s15.66,6.42,15.66,15.11-6.67,15.11-15.66,15.11-15.74-6.46-15.74-15.11ZM304.7,49.78c0-6.54-4.9-11.35-11.44-11.35s-11.52,4.81-11.52,11.35,4.9,11.35,11.52,11.35,11.44-4.81,11.44-11.35ZM339.23,45.31c0,6.42-4.64,10.3-12.32,10.3h-7.3v8.95h-4.22v-29.54h11.52c7.68,0,12.32,3.88,12.32,10.3ZM335.01,45.31c0-4.22-2.83-6.63-8.23-6.63h-7.17v13.25h7.17c5.4,0,8.23-2.41,8.23-6.63ZM369.28,45.31c0,6.42-4.64,10.3-12.32,10.3h-7.3v8.95h-4.22v-29.54h11.52c7.68,0,12.32,3.88,12.32,10.3ZM365.06,45.31c0-4.22-2.83-6.63-8.23-6.63h-7.17v13.25h7.17c5.4,0,8.23-2.41,8.23-6.63ZM396.93,60.88v3.67h-21.44v-29.54h20.85v3.67h-16.63v9.07h14.81v3.59h-14.81v9.54h17.22ZM423.52,64.55l-6.37-9.07c-.59.04-1.22.08-1.86.08h-7.3v8.99h-4.22v-29.54h11.52c7.68,0,12.32,3.88,12.32,10.3,0,4.56-2.36,7.85-6.5,9.33l7.01,9.92h-4.6ZM423.39,45.31c0-4.22-2.83-6.63-8.23-6.63h-7.17v13.29h7.17c5.4,0,8.23-2.45,8.23-6.67Z"/></g></svg>