<svg width="52" height="52" viewBox="0 0 52 52" fill="none" xmlns="http://www.w3.org/2000/svg">
<circle cx="26" cy="26" r="24" stroke="#14AE5C" stroke-width="4" stroke-linecap="round"/>
<g clip-path="url(#clip0_12_43)">
<path d="M37.2812 26.2187V24.7812H27.2187V22.625H29.7344C30.0202 22.6247 30.2942 22.511 30.4963 22.3089C30.6985 22.1068 30.8122 21.8327 30.8125 21.5469V15.7969C30.8122 15.511 30.6985 15.237 30.4963 15.0349C30.2942 14.8328 30.0202 14.7191 29.7344 14.7188H23.2656C22.9798 14.7191 22.7057 14.8328 22.5036 15.0349C22.3015 15.237 22.1878 15.511 22.1875 15.7969V21.5469C22.1878 21.8327 22.3015 22.1068 22.5036 22.3089C22.7057 22.511 22.9798 22.6247 23.2656 22.625H25.7812V24.7812H15.7188V26.2187H19.3125V28.375H16.8594C16.5735 28.3753 16.2995 28.489 16.0974 28.6912C15.8953 28.8933 15.7816 29.1673 15.7812 29.4531V35.2031C15.7816 35.489 15.8953 35.763 16.0974 35.9651C16.2995 36.1672 16.5735 36.281 16.8594 36.2812H23.2656C23.5515 36.281 23.8255 36.1672 24.0276 35.9651C24.2297 35.763 24.3434 35.489 24.3437 35.2031V29.4531C24.3434 29.1673 24.2297 28.8933 24.0276 28.6912C23.8255 28.489 23.5515 28.3753 23.2656 28.375H20.75V26.2187H32.25V28.375H29.7344C29.4485 28.3753 29.1745 28.489 28.9724 28.6912C28.7703 28.8933 28.6565 29.1673 28.6562 29.4531V35.2031C28.6565 35.489 28.7703 35.763 28.9724 35.9651C29.1745 36.1672 29.4485 36.281 29.7344 36.2812H36.2031C36.489 36.281 36.763 36.1672 36.9651 35.9651C37.1672 35.763 37.281 35.489 37.2812 35.2031V29.4531C37.281 29.1673 37.1672 28.8933 36.9651 28.6912C36.763 28.489 36.489 28.3753 36.2031 28.375H33.6875V26.2187H37.2812ZM23.625 16.1562H29.375V21.1875H23.625V16.1562ZM22.9062 34.8437H17.2187V29.8125H22.9062V34.8437ZM35.8437 34.8437H30.0937V29.8125H35.8437V34.8437Z" fill="#FFFD94"/>
</g>
<defs>
<clipPath id="clip0_12_43">
<rect width="23" height="23" fill="white" transform="translate(15 14)"/>
</clipPath>
</defs>
</svg>