<svg width="52" height="52" viewBox="0 0 52 52" fill="none" xmlns="http://www.w3.org/2000/svg">
<g clip-path="url(#clip0_12_44)">
<path d="M36.2812 27.2187V25.7812H26.2187V23.625H28.7344C29.0202 23.6247 29.2942 23.511 29.4963 23.3089C29.6985 23.1068 29.8122 22.8327 29.8125 22.5469V16.7969C29.8122 16.511 29.6985 16.237 29.4963 16.0349C29.2942 15.8328 29.0202 15.7191 28.7344 15.7188H22.2656C21.9798 15.7191 21.7057 15.8328 21.5036 16.0349C21.3015 16.237 21.1878 16.511 21.1875 16.7969V22.5469C21.1878 22.8327 21.3015 23.1068 21.5036 23.3089C21.7057 23.511 21.9798 23.6247 22.2656 23.625H24.7812V25.7812H14.7188V27.2187H18.3125V29.375H15.8594C15.5735 29.3753 15.2995 29.489 15.0974 29.6912C14.8953 29.8933 14.7816 30.1673 14.7812 30.4531V36.2031C14.7816 36.489 14.8953 36.763 15.0974 36.9651C15.2995 37.1672 15.5735 37.281 15.8594 37.2812H22.2656C22.5515 37.281 22.8255 37.1672 23.0276 36.9651C23.2297 36.763 23.3434 36.489 23.3437 36.2031V30.4531C23.3434 30.1673 23.2297 29.8933 23.0276 29.6912C22.8255 29.489 22.5515 29.3753 22.2656 29.375H19.75V27.2187H31.25V29.375H28.7344C28.4485 29.3753 28.1745 29.489 27.9724 29.6912C27.7703 29.8933 27.6565 30.1673 27.6562 30.4531V36.2031C27.6565 36.489 27.7703 36.763 27.9724 36.9651C28.1745 37.1672 28.4485 37.281 28.7344 37.2812H35.2031C35.489 37.281 35.763 37.1672 35.9651 36.9651C36.1672 36.763 36.281 36.489 36.2812 36.2031V30.4531C36.281 30.1673 36.1672 29.8933 35.9651 29.6912C35.763 29.489 35.489 29.3753 35.2031 29.375H32.6875V27.2187H36.2812ZM22.625 17.1562H28.375V22.1875H22.625V17.1562ZM21.9062 35.8437H16.2187V30.8125H21.9062V35.8437ZM34.8437 35.8437H29.0937V30.8125H34.8437V35.8437Z" fill="#FFFD94"/>
</g>
<circle cx="26" cy="26" r="24" stroke="#DF1219" stroke-width="4" stroke-linecap="round" stroke-dasharray="16 10"/>
<defs>
<clipPath id="clip0_12_44">
<rect width="23" height="23" fill="white" transform="translate(14 15)"/>
</clipPath>
</defs>
</svg>