<svg
    fill="none"
    height="512"
    viewBox="0 0 24 24"
    width="512" 
    xmlns="http://www.w3.org/2000/svg"
>
    <path
        d="m23.25 12.75v-1.5h-10.5v-2.25h2.625c.2983-.00033.5842-.11897.7951-.32987.2109-.21091.3296-.49686.3299-.79513v-6c-.0003-.29827-.119-.58422-.3299-.79513-.2109-.210901-.4968-.329535-.7951-.32987h-6.75c-.29827.000335-.58422.118969-.79513.32987-.2109.21091-.32954.49686-.32987.79513v6c.00033.29827.11897.58422.32987.79513.21091.2109.49686.32954.79513.32987h2.625v2.25h-10.5v1.5h3.75v2.25h-2.5598c-.29826.0003-.58421.119-.79511.3299-.210902.2109-.329539.4968-.329887.7951v6c.000348.2983.118985.5842.329887.7951.2109.2109.49685.3296.79511.3299h6.6848c.29827-.0003.58422-.119.79513-.3299.2109-.2109.32954-.4968.32987-.7951v-6c-.00033-.2983-.11897-.5842-.32987-.7951-.21091-.2109-.49686-.3296-.79513-.3299h-2.625v-2.25h12v2.25h-2.625c-.2983.0003-.5842.119-.7951.3299s-.3296.4968-.3299.7951v6c.0003.2983.119.5842.3299.7951s.4968.3296.7951.3299h6.75c.2983-.0003.5842-.119.7951-.3299s.3296-.4968.3299-.7951v-6c-.0003-.2983-.119-.5842-.3299-.7951s-.4968-.3296-.7951-.3299h-2.625v-2.25zm-14.25-10.5h6v5.25h-6zm-.75 19.5h-5.9348v-5.25h5.9348zm13.5 0h-6v-5.25h6z"
        fill="#FFFD94"
    />
</svg>