<svg width="52" height="52" viewBox="0 0 52 52" fill="none" xmlns="http://www.w3.org/2000/svg">
<circle cx="26" cy="26" r="24" stroke="#DF1219" stroke-width="4" stroke-linecap="round" stroke-dasharray="16 10"/>
<path d="M31 17C31.5304 17 32.0391 17.2107 32.4142 17.5858C32.7893 17.9609 33 18.4696 33 19V29C33 29.5304 32.7893 30.0391 32.4142 30.4142C32.0391 30.7893 31.5304 31 31 31H27V33H28C28.2652 33 28.5196 33.1054 28.7071 33.2929C28.8946 33.4804 29 33.7348 29 34H36V36H29C29 36.2652 28.8946 36.5196 28.7071 36.7071C28.5196 36.8946 28.2652 37 28 37H24C23.7348 37 23.4804 36.8946 23.2929 36.7071C23.1054 36.5196 23 36.2652 23 36H16V34H23C23 33.7348 23.1054 33.4804 23.2929 33.2929C23.4804 33.1054 23.7348 33 24 33H25V31H21C19.89 31 19 30.1 19 29V19C19 18.4696 19.2107 17.9609 19.5858 17.5858C19.9609 17.2107 20.4696 17 21 17H31Z" fill="#C1D200"/>
</svg>