<svg width="52" height="52" viewBox="0 0 52 52" fill="none" xmlns="http://www.w3.org/2000/svg">
<circle cx="26" cy="26" r="24" stroke="#14AE5C" stroke-width="4" stroke-linecap="round"/>
<path d="M31 16C31.5304 16 32.0391 16.2107 32.4142 16.5858C32.7893 16.9609 33 17.4696 33 18V28C33 28.5304 32.7893 29.0391 32.4142 29.4142C32.0391 29.7893 31.5304 30 31 30H27V32H28C28.2652 32 28.5196 32.1054 28.7071 32.2929C28.8946 32.4804 29 32.7348 29 33H36V35H29C29 35.2652 28.8946 35.5196 28.7071 35.7071C28.5196 35.8946 28.2652 36 28 36H24C23.7348 36 23.4804 35.8946 23.2929 35.7071C23.1054 35.5196 23 35.2652 23 35H16V33H23C23 32.7348 23.1054 32.4804 23.2929 32.2929C23.4804 32.1054 23.7348 32 24 32H25V30H21C19.89 30 19 29.1 19 28V18C19 17.4696 19.2107 16.9609 19.5858 16.5858C19.9609 16.2107 20.4696 16 21 16H31Z" fill="#C1D200"/>
</svg>