<svg width="52" height="52" viewBox="0 0 52 52" fill="none" xmlns="http://www.w3.org/2000/svg">
<circle cx="26" cy="26" r="24" stroke="#DF1219" stroke-width="4" stroke-linecap="round" stroke-dasharray="16 10"/>
<path d="M26 16C20.5 16 16 20.5 16 26C16 31.5 20.5 36 26 36C31.5 36 36 31.5 36 26C36 20.5 31.5 16 26 16ZM26 34C21.58 34 18 30.42 18 26C18 21.58 21.58 18 26 18C30.42 18 34 21.58 34 26C34 30.42 30.42 34 26 34ZM27 27V30H29L26 33L23 30H25V27M19 27H22V29L25 26L22 23V25H19M25 25V22H23L26 19L29 22H27V25M33 25H30V23L27 26L30 29V27H33" fill="#94D8FF"/>
</svg>